<?xml version="1.0" encoding="UTF-8"?>
<svg width="380px" height="311px" viewBox="0 0 380 311" version="1.1" xmlns="http://www.w3.org/2000/svg" xmlns:xlink="http://www.w3.org/1999/xlink">
    <!-- Generator: Sketch 46.2 (44496) - http://www.bohemiancoding.com/sketch -->
    <title>Page 1</title>
    <desc>Created with Sketch.</desc>
    <defs>
        <polygon id="path-1" points="0 29.1221 0 0.9031 92.1037 0.9031 92.1037 29.1221 3.88220272e-15 29.1221"></polygon>
        <polygon id="path-3" points="0.923660275 0.586 365.389 0.586 365.389 311 0.923660275 311"></polygon>
        <polygon id="path-5" points="61.9949 29 0.8379 29 0.8379 0.7807 61.9949 0.7807 61.9949 29"></polygon>
    </defs>
    <g id="Page-1" stroke="none" stroke-width="1" fill="none" fill-rule="evenodd" opacity="0.371320199">
        <g id="main" transform="translate(-427.000000, -344.000000)">
            <g id="Page-1" transform="translate(427.000000, 343.000000)">
                <path d="M295.6388,71.5487 C295.6388,79.3407 301.9558,85.6587 309.7488,85.6587 L352.0148,85.6587 C359.8068,85.6587 366.1238,79.3407 366.1238,71.5487 C366.1238,63.7567 359.8068,57.4387 352.0148,57.4387 L309.7488,57.4387 C301.9558,57.4387 295.6388,63.7567 295.6388,71.5487" id="Fill-1" fill="#FFE7C0"></path>
                <g id="Group-5" transform="translate(0.000000, 169.414000)">
                    <mask id="mask-2" fill="white">
                        <use xlink:href="#path-1"></use>
                    </mask>
                    <g id="Clip-4"></g>
                    <path d="M92.1037,15.0121 L92.1037,15.0121 C92.1037,7.2201 85.7867,0.9031 77.9947,0.9031 L14.1097,0.9031 C6.3167,0.9031 -0.0003,7.2201 -0.0003,15.0121 C-0.0003,22.8051 6.3167,29.1221 14.1097,29.1221 L77.9947,29.1221 C85.7867,29.1221 92.1037,22.8051 92.1037,15.0121" id="Fill-3" fill="#FFE7C0" mask="url(#mask-2)"></path>
                </g>
                <g id="Group-8" transform="translate(14.000000, 0.414000)">
                    <mask id="mask-4" fill="white">
                        <use xlink:href="#path-3"></use>
                    </mask>
                    <g id="Clip-7"></g>
                    <path d="M339.6877,198.1225 L351.2797,198.1225 C359.0717,198.1225 365.3887,191.8055 365.3887,184.0125 C365.3887,176.2205 359.0717,169.9025 351.2797,169.9025 L309.6187,169.9025 C301.8267,169.9025 295.5087,163.5855 295.5087,155.7935 C295.5087,148.0005 301.8267,141.6835 309.6187,141.6835 L331.3927,141.6835 C339.1857,141.6835 345.5027,135.3665 345.5027,127.5735 C345.5027,119.7815 339.1857,113.4635 331.3927,113.4635 L183.2187,113.4635 C175.4257,113.4635 169.1087,107.1465 169.1087,99.3545 L169.1087,99.3535 C169.1087,91.5615 175.4257,85.2445 183.2187,85.2445 L241.3857,85.2445 C248.9837,85.2445 255.5207,79.4055 255.8777,71.8165 C256.2597,63.7145 249.8037,57.0245 241.7847,57.0245 C234.2257,57.0245 228.0977,50.8975 228.0977,43.3385 L228.0977,42.4925 C228.0977,34.9335 234.2257,28.8055 241.7847,28.8055 L300.0187,28.8055 C307.8107,28.8055 314.1277,22.4885 314.1277,14.6955 C314.1277,6.9035 307.8107,0.5855 300.0187,0.5855 L44.8967,0.5855 C37.1047,0.5855 30.7877,6.9035 30.7877,14.6955 C30.7877,22.4885 37.1047,28.8055 44.8967,28.8055 L81.3957,28.8055 C89.1887,28.8055 95.5047,35.1225 95.5047,42.9145 L95.5047,42.9155 C95.5047,50.7075 89.1887,57.0245 81.3957,57.0245 L15.4317,57.0245 C7.8347,57.0245 1.2967,62.8635 0.9397,70.4525 C0.5587,78.5555 7.0147,85.2445 15.0337,85.2445 L34.5957,85.2445 C42.3877,85.2445 48.7057,91.5615 48.7057,99.3535 L48.7057,99.3545 C48.7057,107.1465 42.3877,113.4635 34.5957,113.4635 L25.0107,113.4635 C17.2177,113.4635 10.9007,119.7815 10.9007,127.5735 C10.9007,135.3665 17.2177,141.6835 25.0107,141.6835 L129.5687,141.6835 C137.3617,141.6835 143.6787,148.0005 143.6787,155.7935 C143.6787,163.5855 137.3617,169.9025 129.5687,169.9025 L123.0167,169.9025 C115.2247,169.9025 108.9067,176.2205 108.9067,184.0125 C108.9067,191.8055 115.2247,198.1225 123.0167,198.1225 L213.9887,198.1225 C221.7817,198.1225 228.0977,204.4385 228.0977,212.2315 C228.0977,220.0245 221.7817,226.3415 213.9887,226.3415 L68.5837,226.3415 C60.9857,226.3415 54.4487,232.1805 54.0917,239.7685 C53.7097,247.8725 60.1667,254.5605 68.1857,254.5605 L102.1527,254.5605 C109.9457,254.5605 116.2627,260.8785 116.2627,268.6705 C116.2627,276.4635 109.9457,282.7805 102.1527,282.7805 L22.0517,282.7805 C14.2587,282.7805 7.9417,289.0985 7.9417,296.8905 C7.9417,304.6835 14.2587,311.0005 22.0517,311.0005 L234.7667,311.0005 C242.5597,311.0005 248.8757,304.6835 248.8757,296.8905 C248.8757,289.0985 242.5597,282.7805 234.7667,282.7805 L212.1977,282.7805 C204.4057,282.7805 198.0877,276.4635 198.0877,268.6705 C198.0877,260.8785 204.4057,254.5605 212.1977,254.5605 L350.8807,254.5605 C358.4787,254.5605 365.0157,248.7225 365.3737,241.1335 C365.7537,233.0305 359.2977,226.3415 351.2797,226.3415 L339.6877,226.3415 C331.8947,226.3415 325.5777,220.0245 325.5777,212.2315 C325.5777,204.4385 331.8947,198.1225 339.6877,198.1225" id="Fill-6" fill="#FFE7C0" mask="url(#mask-4)"></path>
                </g>
                <g id="Group-11" transform="translate(290.000000, 282.414000)">
                    <mask id="mask-6" fill="white">
                        <use xlink:href="#path-5"></use>
                    </mask>
                    <g id="Clip-10"></g>
                    <path d="M47.8859,0.7807 L14.9479,0.7807 C7.1559,0.7807 0.8379,7.0977 0.8379,14.8897 C0.8379,22.6827 7.1559,29.0007 14.9479,29.0007 L47.8859,29.0007 C55.6779,29.0007 61.9949,22.6827 61.9949,14.8897 C61.9949,7.0977 55.6779,0.7807 47.8859,0.7807" id="Fill-9" fill="#FFE7C0" mask="url(#mask-6)"></path>
                </g>
            </g>
        </g>
    </g>
</svg>