<?xml version="1.0" encoding="utf-8"?>
<!-- Generator: Adobe Illustrator 21.1.0, SVG Export Plug-In . SVG Version: 6.00 Build 0)  -->
<svg version="1.1" id="Layer_1" xmlns="http://www.w3.org/2000/svg" xmlns:xlink="http://www.w3.org/1999/xlink" x="0px" y="0px"
	 viewBox="0 0 190 175" style="enable-background:new 0 0 190 175;" xml:space="preserve">
<style type="text/css">
	.st0{fill:#474F58;}
	.st1{font-family:'SpoqaHanSans-Regular';}
	.st2{font-size:13px;}
	.st3{filter:url(#filter-1);}
	.st4{fill:#FDCA6B;}
	.st5{fill:none;stroke:#DBA753;stroke-width:2;}
	.st6{fill:none;stroke:#2F3C72;stroke-width:3;}
	.st7{filter:url(#Adobe_OpacityMaskFilter);}
	.st8{fill:#FFFFFF;}
	.st9{mask:url(#mask-4_1_);}
	.st10{fill:#2F3C72;}
</style>
<filter  filterUnits="objectBoundingBox" height="112.7%" id="filter-1" width="107.3%" x="-3.6%" y="-3.5%">
	<feOffset  dx="3" dy="3" in="SourceAlpha" result="shadowOffsetOuter1"></feOffset>
	
		<feColorMatrix  in="shadowOffsetOuter1" result="shadowMatrixOuter1" type="matrix" values="0 0 0 0 0   0 0 0 0 0   0 0 0 0 0  0 0 0 0.224184783 0">
		</feColorMatrix>
	<feMerge>
		<feMergeNode  in="shadowMatrixOuter1"></feMergeNode>
		<feMergeNode  in="SourceGraphic"></feMergeNode>
	</feMerge>
</filter>
<title>Group 8</title>
<desc>Created with Sketch.</desc>
<g id="Page-1">
	<g id="add" transform="translate(-581.000000, -57.000000)">
		<g id="Group-8" transform="translate(581.000000, 57.000000)">
			<text transform="matrix(1 0 0 1 40.174 43.0001)" class="st0 st1 st2">더치페이하는 우리사이</text>
			<g id="Group-4" transform="translate(45.000000, 65.000000)" class="st3">
				<g id="Group_1_" transform="translate(0.000000, 2.000000)">
					<g id="Path_3_">
						<g>
							<path id="path-2_1_" class="st4" d="M35.1,67.6L17.3,32.3c-0.1-0.3-1.3-3-1.4-3.3c0,0.4,0,4,0,4.3v28.9
								c0,1.6-0.6,2.9-1.8,3.9s-2.5,1.5-4.1,1.5H1V0.4h13.4l17.8,34.5c0.2,0.3,1.5,3.2,1.7,3.6c0-0.4-0.3-3.6-0.3-4V0.4h14.9v61.8
								c0,1.6-0.6,2.9-1.8,3.9c-1.2,1-2.5,1.5-4.1,1.5H35.1z"/>
						</g>
						<path class="st5" d="M35.8,66.6h6.9c1.3,0,2.5-0.4,3.4-1.3c0.9-0.8,1.4-1.8,1.4-3.2V1.4H34.6v33.1c0,0.1,0,0.6,0.1,1.9l0,0
							c0.1,1.4,0.1,1.8,0.1,2.1v4.5l-1.9-4c0.1,0.2-0.6-1.2-0.8-1.8c0,0,0,0,0,0c-0.4-0.9-0.7-1.6-0.8-1.7L13.7,1.4H2v65.3h8
							c1.3,0,2.5-0.4,3.4-1.3c0.9-0.8,1.4-1.8,1.4-3.2V33.3c0-0.1,0-1.1,0-1.2c0-0.4,0-0.7,0-1c0-1.1,0-1.9,0-2L14.1,24l2.6,4.5
							c0.2,0.3,1.3,2.8,1.5,3.3L35.8,66.6z"/>
					</g>
					<g id="Group-15_1_">
						<path class="st6" d="M17.3,37.2v24.9c0,2-0.8,3.8-2.3,5.1c-1.4,1.2-3.2,1.9-5.1,1.9H-0.5V-1.1h15.8l16.9,31.7V-1.1H50v63.3
							c0,2-0.8,3.8-2.3,5.1c-1.4,1.2-3.2,1.9-5.1,1.9h-8.4L17.3,37.2z"/>
						<defs>
							<filter id="Adobe_OpacityMaskFilter" filterUnits="userSpaceOnUse" x="-20.1" y="-3.2" width="51.9" height="33.7">
								<feColorMatrix  type="matrix" values="1 0 0 0 0  0 1 0 0 0  0 0 1 0 0  0 0 0 1 0"/>
							</filter>
						</defs>
						<mask maskUnits="userSpaceOnUse" x="-20.1" y="-3.2" width="51.9" height="33.7" id="mask-4_1_">
							<g class="st7">
								<path id="path-3_1_" class="st8" d="M35.1,67.6l-18.6-35c-0.1-0.3-0.6-2.9-0.7-3.2c0,0.4,0,3.4,0,3.7v29
									c0,1.6-0.6,2.9-1.8,3.9s-2.5,1.5-4.1,1.5H1V0.4h13.4l18.2,34.2c0.2,0.3,0.4,0.9,0.7,1.8c0.2,0.9,0.5,1.6,0.7,2
									c0-0.4,0-1.1-0.1-2c-0.1-0.9-0.1-1.6-0.1-1.9V0.4h14.9v61.8c0,1.6-0.6,2.9-1.8,3.9c-1.2,1-2.5,1.5-4.1,1.5H35.1z"/>
							</g>
						</mask>
						<g class="st9">
							
								<g transform="translate(5.979704, 14.392890) rotate(20.000000) translate(-5.979704, -14.392890) translate(-13.520296, -9.107110)">
								<path id="Fill-11_1_" class="st8" d="M38.4,0c-3.2,0.2-7,1.1-11,2.6L9.2,44.2c3.8-1.1,7.9-2.8,12.1-5.1L38.4,0z"/>
								<path id="Fill-13_1_" class="st8" d="M16.4,6.7L0,46.1c1.4-0.1,3-0.3,4.6-0.7L22,3.8C20.2,4.7,18.3,5.6,16.4,6.7"/>
							</g>
						</g>
					</g>
				</g>
				<g id="Group-3_1_" transform="translate(56.000000, 0.000000)">
					<path id="Combined-Shape_3_" class="st10" d="M41,34.2c0,1.5-0.4,2.6-1.1,3.2s-1.8,1-3.2,1H4.3c-1.4,0-2.5-0.3-3.2-1
						S0,35.7,0,34.2V0.1h12.4v6.2h1.9V0.1h12.3v6.2h1.9V0.1H41V34.2z M14.9,26.9v-7.7H13v7.7H14.9z M27.9,26.9v-7.7h-1.9v7.7H27.9z"
						/>
					<path id="Path_2_" class="st10" d="M57.2,12.6H67v8.7c0,1.6-0.5,2.7-1.4,3.4c-0.9,0.7-2.2,1.1-3.8,1.1h-4.6v7.5
						c0,1.6-0.5,2.8-1.6,3.8c-1,0.9-2.4,1.4-4.2,1.4h-8.7V0.1h14.4V12.6z"/>
					<path id="Combined-Shape_2_" class="st10" d="M57.7,59.8c0,3.6-1.2,6.4-3.5,8.3C51.9,70,49,71,45.5,71H14.1
						c-3.4,0-6.3-1-8.7-2.9c-2.4-1.9-3.5-4.7-3.5-8.3v-8.2c0-3.6,1.2-6.4,3.5-8.3s5.3-2.9,8.7-2.9h31.4c3.5,0,6.4,1,8.7,2.9
						c2.3,1.9,3.5,4.7,3.5,8.3V59.8z M42.8,54.4c0-0.8-0.2-1.4-0.7-1.9s-1.5-0.7-3.1-0.7H20.5c-1.5,0-2.5,0.2-3,0.7
						c-0.5,0.5-0.7,1.1-0.7,1.9V55c0,0.8,0.2,1.4,0.7,1.9c0.5,0.5,1.5,0.7,3,0.7h18.6c1.6,0,2.6-0.2,3.1-0.7s0.7-1.1,0.7-1.9V54.4z"
						/>
				</g>
			</g>
			<g id="Group-2" transform="translate(141.000000, 0.000000)">
				<path id="Fill-1" class="st10" d="M8.6,5.1V1.7c0-0.8,0.7-1.5,1.5-1.5c0.8,0,1.5,0.7,1.5,1.5v3.4c0,0.8-0.7,1.5-1.5,1.5
					C9.2,6.5,8.6,5.9,8.6,5.1"/>
				<path id="Fill-3" class="st10" d="M8.6,17v-3.4c0-0.8,0.7-1.5,1.5-1.5c0.8,0,1.5,0.7,1.5,1.5V17c0,0.8-0.7,1.5-1.5,1.5
					C9.2,18.5,8.6,17.8,8.6,17"/>
				<path id="Fill-5" class="st10" d="M14.3,7.9h3.4c0.8,0,1.5,0.7,1.5,1.5c0,0.8-0.7,1.5-1.5,1.5h-3.4c-0.8,0-1.5-0.7-1.5-1.5
					C12.8,8.5,13.5,7.9,14.3,7.9"/>
				<path id="Fill-7" class="st10" d="M2.4,7.9h3.4c0.8,0,1.5,0.7,1.5,1.5c0,0.8-0.7,1.5-1.5,1.5H2.4c-0.8,0-1.5-0.7-1.5-1.5
					C0.9,8.5,1.6,7.9,2.4,7.9"/>
				<path id="Fill-67" class="st10" d="M41.7,28.9c-1.9,0-3.5,1.6-3.5,3.5s1.6,3.5,3.5,3.5s3.5-1.6,3.5-3.5S43.6,28.9,41.7,28.9
					 M41.7,38.8c-3.5,0-6.4-2.9-6.4-6.4c0-3.5,2.9-6.4,6.4-6.4c3.5,0,6.4,2.9,6.4,6.4C48.1,35.9,45.3,38.8,41.7,38.8"/>
			</g>
			<g id="Group-2_1_" transform="translate(0.000000, 136.000000)">
				<path id="Fill-1_1_" class="st10" d="M8.6,5.1V1.7c0-0.8,0.7-1.5,1.5-1.5c0.8,0,1.5,0.7,1.5,1.5v3.4c0,0.8-0.7,1.5-1.5,1.5
					C9.2,6.5,8.6,5.9,8.6,5.1"/>
				<path id="Fill-3_1_" class="st10" d="M8.6,17v-3.4c0-0.8,0.7-1.5,1.5-1.5c0.8,0,1.5,0.7,1.5,1.5V17c0,0.8-0.7,1.5-1.5,1.5
					C9.2,18.5,8.6,17.8,8.6,17"/>
				<path id="Fill-5_1_" class="st10" d="M14.3,7.9h3.4c0.8,0,1.5,0.7,1.5,1.5c0,0.8-0.7,1.5-1.5,1.5h-3.4c-0.8,0-1.5-0.7-1.5-1.5
					C12.8,8.5,13.5,7.9,14.3,7.9"/>
				<path id="Fill-7_1_" class="st10" d="M2.4,7.9h3.4c0.8,0,1.5,0.7,1.5,1.5c0,0.8-0.7,1.5-1.5,1.5H2.4c-0.8,0-1.5-0.7-1.5-1.5
					C0.9,8.5,1.6,7.9,2.4,7.9"/>
				<path id="Fill-67_1_" class="st10" d="M41.7,28.9c-1.9,0-3.5,1.6-3.5,3.5s1.6,3.5,3.5,3.5s3.5-1.6,3.5-3.5S43.6,28.9,41.7,28.9
					 M41.7,38.8c-3.5,0-6.4-2.9-6.4-6.4c0-3.5,2.9-6.4,6.4-6.4c3.5,0,6.4,2.9,6.4,6.4C48.1,35.9,45.3,38.8,41.7,38.8"/>
			</g>
		</g>
	</g>
</g>
</svg>
