<?xml version="1.0" encoding="UTF-8"?>
<svg width="17px" height="20px" viewBox="0 0 17 20" version="1.1" xmlns="http://www.w3.org/2000/svg" xmlns:xlink="http://www.w3.org/1999/xlink">
    <!-- Generator: Sketch 46.2 (44496) - http://www.bohemiancoding.com/sketch -->
    <title>Group 6</title>
    <desc>Created with Sketch.</desc>
    <defs>
        <polygon id="path-1" points="7.81864798e-21 0 7.81864798e-21 18.720904 14.9462366 18.720904 14.9462366 0"></polygon>
    </defs>
    <g id="Page-1" stroke="none" stroke-width="1" fill="none" fill-rule="evenodd">
        <g id="add-after" transform="translate(-519.000000, -432.000000)">
            <g id="Group-7" transform="translate(448.000000, 295.000000)">
                <g id="Group-6" transform="translate(71.000000, 137.000000)">
                    <path d="M12.5493741,18.4364212 L14,17.3999267 L13.19773,16.2083936 C13.1599562,14.203343 12.137809,11.3905816 10.2998609,8.66259791 C8.46191276,5.93519488 6.26257668,3.96324242 4.45169037,3.22463125 L3.62686887,2 L1.7314144,3.35470114 L1.7449453,3.37560523 C0.201858185,4.79650266 1.12139603,9.11319718 3.89861457,13.2365289 C6.76942189,17.4986405 10.5293225,19.9287409 12.2973609,18.6663662 C12.3898221,18.5995892 12.4710076,18.5200375 12.5493741,18.4364212" id="Fill-120" fill="#DBA753"></path>
                    <g id="Group-124" transform="translate(0.000000, 1.000000)">
                        <mask id="mask-2" fill="white">
                            <use xlink:href="#path-1"></use>
                        </mask>
                        <g id="Clip-123"></g>
                        <path d="M2.30728372,3.0943525 L2.21857274,3.1798605 C1.12055415,4.16408703 1.82730448,8.05381634 4.59614431,12.0603083 C7.41609576,16.140514 10.9110731,18.2216018 12.1524392,17.3576762 C12.2023759,17.3228832 12.2440876,17.2780653 12.2863869,17.2350164 L12.4156347,17.1241509 L13.2216708,16.5627466 L12.7270043,15.847428 L12.7217169,15.586776 C12.684705,13.6572439 11.586099,10.9027069 9.85535376,8.39820717 C8.12402107,5.89370742 5.93797121,3.89576883 4.15023949,3.18457818 L3.90936863,3.08904511 L3.39120256,2.34011299 L2.30728372,3.0943525 Z M3.12827407,12.6032305 C0.648723048,9.01026281 -0.887006322,4.50310115 0.5598792,2.22457721 L0.938907823,1.71063317 L1.1223646,1.55169336 L3.34749915,0 L4.93976552,1.4316184 C6.95952078,2.32434965 9.22965417,4.40970951 11.0642219,7.06760072 C12.8976359,9.72549194 14.0451061,12.5939494 14.1697183,14.8092454 L14.9462366,16.8099148 C14.9462366,16.8099148 13.0112868,18.159743 12.8953283,18.2409531 C10.6332716,19.8187497 6.43453441,17.3952077 3.12827407,12.6032305 L3.12827407,12.6032305 Z" id="Fill-122" fill="#2F3C72" mask="url(#mask-2)"></path>
                    </g>
                    <path d="M15.0341705,16.6680388 C13.1523261,17.9236581 9.1485297,15.5076295 6.09255854,11.2722223 C3.03598711,7.03796919 2.08395995,2.58732944 3.9658043,1.33171009 C5.84764865,0.0766677616 9.85144509,2.49269636 12.9080165,6.7269495 C15.9639877,10.9623567 16.9160148,15.4129964 15.0341705,16.6680388" id="Fill-125" fill="#DBA753"></path>
                    <path d="M9.13403145,13.2835091 C6.6568324,11.0786511 4.81287923,7.59782003 5.01517462,5.50826782 C5.216857,3.41871562 7.38877391,3.51177971 9.86597297,5.71605243 C12.342559,7.92091045 14.1871252,11.4017415 13.9848298,13.4912937 C13.7825344,15.5814312 11.6112305,15.4883672 9.13403145,13.2835091" id="Fill-127" fill="#FDCA6B"></path>
                    <path d="M8.9559137,9.98835301 C9.18035303,10.0715235 9.4203121,10.1084187 9.66564339,10.0996639 C9.743839,10.0977879 9.87695063,10.0727742 10.0619937,10.0227468 C10.2028652,9.98835301 10.3192632,9.97522082 10.4028311,9.98147424 C10.6248827,10.0058626 10.8260425,10.1046666 11.000938,10.2747596 C11.1036071,10.3748144 11.1806089,10.4704917 11.2385094,10.568045 C11.2814872,10.6399594 11.3047668,10.6974908 11.2982007,10.7769092 C11.2922316,10.8450715 11.2737273,10.8844681 11.2498508,10.8813414 C11.1579262,10.8694599 11.0301867,10.7931681 10.8678264,10.6537169 L10.5639976,10.3929493 L10.6797988,11.9838193 L10.9513942,12.2252013 C11.4217617,12.6454311 11.8228874,12.8374111 12.141639,12.7948878 C12.2759444,12.7780036 12.3839857,12.7085906 12.4651659,12.5878996 L12.8877803,13 L13,11.7261784 L12.5732071,11.3097006 C12.4830732,10.8869694 12.2986271,10.4429766 12.0228532,9.98710232 C11.75663,9.54373485 11.4498167,9.15039475 11.1101731,8.8189635 C10.7591882,8.47627609 10.4219323,8.24489955 10.1091498,8.13171266 C9.86859384,8.04416478 9.61072738,8.01664973 9.3200307,8.04791683 C8.9785964,8.08856406 8.72252068,8.1204565 8.57150166,8.14296881 C8.38705551,8.13609005 8.22111367,8.0622997 8.07725761,7.92222309 C7.94713055,7.79465333 7.90057133,7.72086297 7.88505159,7.69272258 C7.79253006,7.53263503 7.75492453,7.41819745 7.76149058,7.30563589 C7.76328132,7.24435238 7.78954549,7.21496131 7.85281828,7.21621199 C7.94772747,7.21371062 8.13097979,7.32627218 8.38287712,7.54138982 L8.65805406,7.77714375 L8.68491515,6.33197843 L8.39242773,6.06558274 C7.9901083,5.69913234 7.62360365,5.45587431 7.30186749,5.34206207 C6.97953441,5.23012585 6.74136608,5.27139842 6.58975015,5.46650512 L6.11281658,5 L6,6.27444696 L6.44410335,6.70780896 C6.49125949,6.97983272 6.57781189,7.26561401 6.70435747,7.56015008 C6.99445724,8.23051669 7.42960689,8.84272649 7.99548052,9.37989526 L7.99607743,9.3805206 C8.2861772,9.65567107 8.60910719,9.8601579 8.9559137,9.98835301" id="Fill-129" fill="#DBA753"></path>
                    <g id="Group-5" transform="translate(2.000000, 0.000000)">
                        <g id="Group-135" transform="translate(0.847808, 3.616688)" fill="#FFFFFF">
                            <path d="M12.7377998,11.5134 C12.7046115,10.6174965 12.47401,9.56664485 12.0706004,8.44064915 L0.665839537,3.11299435 C0.942218018,4.16792359 1.40113218,5.3230449 2.02083797,6.50670929 L12.7377998,11.5134 Z" id="Fill-131"></path>
                            <path d="M10.8295659,5.09569878 L0.0909842845,0.112849486 C0.106464354,0.530840683 0.164371281,0.981297217 0.263558394,1.45900144 L11.5880893,6.71316819 C11.3719417,6.18444701 11.1179539,5.64297158 10.8295659,5.09569878" id="Fill-133"></path>
                        </g>
                        <path d="M10.155011,7.55410269 C7.36110963,3.37437952 3.89783606,1.24192933 2.66851946,2.12753046 C1.43803874,3.01252749 2.15106565,7.12640447 4.94438495,11.3055236 C7.73828632,15.4852467 11.2009778,17.6176969 12.4308765,16.7320958 C13.6607751,15.8470988 12.9489124,11.7332218 10.155011,7.55410269 M3.52603656,12.3273052 C0.174085173,7.31078666 -0.625001317,2.28333885 1.6687162,0.631810106 C3.9630187,-1.01971864 8.22052344,1.51647091 11.5730598,6.5323823 C14.9255962,11.5482937 15.7240977,16.5757415 13.4303802,18.2278774 C11.1366626,19.8794062 6.87857292,17.3426094 3.52603656,12.3273052" id="Fill-136" fill="#2F3C72"></path>
                    </g>
                </g>
            </g>
        </g>
    </g>
</svg>